<?xml version="1.0" encoding="UTF-8"?>
<svg width="16px" height="16px" viewBox="0 0 16 16" version="1.1" xmlns="http://www.w3.org/2000/svg" xmlns:xlink="http://www.w3.org/1999/xlink">
    <!-- Generator: Sketch 49.3 (51167) - http://www.bohemiancoding.com/sketch -->
    <title>Cross@2x@2x</title>
    <desc>Created with Sketch.</desc>
    <defs></defs>
    <g id="Page-1" stroke="none" stroke-width="1" fill="none" fill-rule="evenodd">
        <g id="Cross@2x" fill="#FFFFFF" fill-rule="nonzero">
            <path d="M12.6158072,15.4109572 L8.00499438,10.8024461 L3.38419278,15.4189442 C2.61106256,16.1936853 1.35447622,16.1936853 0.58134598,15.4189442 C-0.193782,14.6462 -0.193782,13.3922376 0.58134598,12.6174966 L5.20014984,7.99900164 L0.58134598,3.38250345 C-0.193782,2.60776239 -0.193782,1.35380008 0.58134598,0.581055782 C1.35447622,-0.193685261 2.61106256,-0.193685261 3.38419278,0.581055782 L8.00499438,5.197554 L12.6158072,0.589042802 C13.3889374,-0.185698241 14.643526,-0.185698241 15.418654,0.589042802 C16.1917842,1.36378386 16.1917842,2.61774617 15.418654,3.39049047 L10.8078412,8.00099841 L15.418654,12.6095096 C16.193782,13.3822538 16.193782,14.638213 15.418654,15.4109572 C14.6455238,16.1837015 13.3889374,16.1837015 12.6158072,15.4109572 Z" id="path-1"></path>
        </g>
    </g>
</svg>